<?xml version="1.0" encoding="UTF-8" standalone="no"?>
<svg
   viewBox="0 0 60 60"
   version="1.1"
   id="svg48"
   sodipodi:docname="mainfest-icon.svg"
   width="60"
   height="60"
   inkscape:version="1.2 (dc2aedaf03, 2022-05-15)"
   inkscape:export-filename="mainfest-icon.png"
   inkscape:export-xdpi="819.19971"
   inkscape:export-ydpi="819.19971"
   xmlns:inkscape="http://www.inkscape.org/namespaces/inkscape"
   xmlns:sodipodi="http://sodipodi.sourceforge.net/DTD/sodipodi-0.dtd"
   xmlns="http://www.w3.org/2000/svg"
   xmlns:svg="http://www.w3.org/2000/svg">
  <sodipodi:namedview
     id="namedview50"
     pagecolor="#ffffff"
     bordercolor="#999999"
     borderopacity="1"
     inkscape:showpageshadow="0"
     inkscape:pageopacity="0"
     inkscape:pagecheckerboard="0"
     inkscape:deskcolor="#d1d1d1"
     showgrid="false"
     inkscape:zoom="3.9333333"
     inkscape:cx="-16.398305"
     inkscape:cy="30"
     inkscape:window-width="1536"
     inkscape:window-height="811"
     inkscape:window-x="-8"
     inkscape:window-y="-8"
     inkscape:window-maximized="1"
     inkscape:current-layer="svg48" />
  <defs
     id="defs4">
    <style
       id="style2">.a{fill:#00a651;}.b{fill:#69b4ed;}.c{fill:#eff1f4;}.d{fill:#ffd301;}.e{fill:#e5e7ea;}.f{fill:#009f4e;}.g{fill:#070707;opacity:0.15;}.h{fill:#faad0d;}.i{fill:#fff;}</style>
  </defs>
  <title
     id="title6" />
  <g
     id="g1634"
     transform="translate(-9.5963004e-6,-1.4381325e-5)">
    <path
       class="a"
       d="M 15.97,56.52 A 29.9915,29.9915 0 0 1 3.14,43.36 l 9.62,-2.65 z"
       id="path8" />
    <path
       class="a"
       d="m 49.42,47.75 -9.65,2.64 -0.98,-4.83 -20.83,5.68 -2.3,-11.32 13.62,-3.75 a 59.63221,59.63221 0 0 0 4.76,6.16 53.18358,53.18358 0 0 0 6.67,-9.3 l 5.43,-1.49 z"
       id="path10" />
    <path
       class="b"
       d="m 59.91,27.7 c -0.04,-0.46 -0.09,-0.92 -0.14,-1.38 -0.01,-0.08 -0.02,-0.15 -0.03,-0.23 q -0.09,-0.67493 -0.21,-1.32 v -0.02 l -17.16,4.72 a 13.28833,13.28833 0 0 0 1.17,-5.14 l -0.03,0.05 c 0.01,-0.18 0.03,-0.36 0.03,-0.55 a 9.5,9.5 0 0 0 -19,0 c 0,0.19 0.02,0.37006 0.03,0.55 l -0.03,-0.05 c 0,0 -0.23,3.28 3.11,9.19 L 22.61,34.9 15.74,3.6 A 30.99273,30.99273 0 0 0 13.04,5.26 29.99656,29.99656 0 0 0 1.93,40.59 c 0.02,0.04 0.03,0.08 0.05,0.12 0.15,0.4 0.31,0.8 0.48,1.18005 a 2.4777,2.4777 0 0 0 0.17,0.37 c 0.14,0.35 0.31,0.69 0.48,1.03 0.01,0.02 0.02,0.05 0.03,0.07 l 9.62,-2.65 3.21,15.81 c 0.32,0.17 0.64,0.33 0.97,0.49005 0.44,0.21 0.89,0.42 1.34,0.61 0.35,0.15 0.7,0.29 1.06,0.43 l -0.79,-3.87 17.93,-4.89 1.93,9.5 a 0.08993,0.08993 0 0 0 0.05,-0.01 l 0.12,-0.03 c 0.43,-0.13 0.86,-0.27 1.28,-0.42 0.42,-0.14 0.84,-0.3 1.26,-0.47 l 0.15,-0.06 -0.9,-4.46 9.65,-2.64 0.28,1.3799 c 0.22,-0.2 0.45,-0.41 0.66,-0.62994 0.12,-0.11 0.23,-0.22 0.34,-0.34 0.31,-0.31 0.61,-0.62 0.9,-0.94 q 0.315,-0.36 0.63,-0.72 L 49.04,30.74 59.91,27.75 Z m -10.49,20.05 -9.65,2.64 -0.98,-4.83 -20.83,5.68 -2.3,-11.32 13.62,-3.75 a 59.63221,59.63221 0 0 0 4.76,6.16 53.18358,53.18358 0 0 0 6.67,-9.3 l 5.43,-1.49 z"
       id="path12" />
    <path
       class="a"
       d="M 60,30 A 29.8667,29.8667 0 0 1 52.83,49.45 L 49.04,30.74 59.91,27.75 Q 60,28.86 60,30 Z"
       id="path14" />
    <path
       class="a"
       d="m 50.3,52.08 a 29.85328,29.85328 0 0 1 -9.03,5.72 l -0.9,-4.46 9.65,-2.64 z"
       id="path16" />
    <path
       class="a"
       d="M 38.41,58.79 A 29.5841,29.5841 0 0 1 30,60 29.92867,29.92867 0 0 1 19.34,58.05 l -0.79,-3.87 17.93,-4.89 z"
       id="path18" />
    <path
       class="c"
       d="m 42.37,29.47 a 13.28833,13.28833 0 0 0 1.17,-5.14 l -0.03,0.05 c 0.01,-0.18 0.03,-0.36 0.03,-0.55 a 9.5,9.5 0 0 0 -19,0 c 0,0.19 0.02,0.37006 0.03,0.55 l -0.03,-0.05 c 0,0 -0.23,3.28 3.11,9.19 L 22.61,34.9 15.74,3.6 a 30.00344,30.00344 0 0 1 43.79,21.15 z"
       id="path20" />
    <path
       class="d"
       d="M 22.95,36.44 20.02,37.09 19.71,35.7 13.04,5.26 a 30.99273,30.99273 0 0 1 2.7,-1.66 l 6.87,31.3 z"
       id="path22" />
    <path
       class="e"
       d="M 49.92029,7.57568 A 30.07,30.07 0 0 0 46.99341,5.27954 l -5.71985,1.57373 -5.04,1.38 -2.9,0.8 -15.46735,4.25396 0.64227,2.92609 24.39508,-6.71 z"
       id="path24" />
    <path
       class="e"
       d="m 56.58759,16.10028 -13.89441,3.82135 a 9.42883,9.42883 0 0 1 0.79,2.88544 L 57.84814,18.8559 a 29.81743,29.81743 0 0 0 -1.26055,-2.75562 z"
       id="path26" />
    <path
       class="e"
       d="m 34.395,8.90192 0.31,1.39 2.93,-0.65 -0.34,-1.54 L 35.63354,0.532 A 29.99884,29.99884 0 0 0 32.46741,0.10486 Z"
       id="path28" />
    <path
       class="f"
       d="m 19.34,58.05 c -0.36,-0.14 -0.71,-0.28 -1.06,-0.43 -0.45,-0.19 -0.9,-0.4 -1.34,-0.61 -0.33,-0.16 -0.65,-0.32 -0.97,-0.49005 l -3.21,-15.81 -0.19,-0.92995 2.93994,-0.6 0.15,0.74 2.3,11.32 0.59,2.94 z"
       id="path30" />
    <path
       class="f"
       d="m 41.27,57.8 -0.15,0.06 c -0.42,0.17 -0.84,0.33 -1.26,0.47 -0.42,0.15 -0.85,0.29 -1.28,0.42 l -0.12,0.03 c -0.02,0.01 -0.03,0.02 -0.05,0.02 v -0.01 l -1.93,-9.5 -17.93,4.89 -1.35,0.37 -0.79,-2.89 1.55,-0.42 20.83,-5.68 0.98,4.83 0.6,2.95 z"
       id="path32" />
    <path
       class="f"
       d="m 52.83,49.45 q -0.31494,0.36 -0.63,0.72 c -0.29,0.32 -0.59,0.63 -0.9,0.94 -0.11,0.12 -0.22,0.23 -0.34,0.34 -0.21,0.22 -0.44,0.43 -0.66,0.62994 L 50.02,50.7 l -0.6,-2.95 -3.28,-16.21 -0.12,-0.6 2.94,-0.6 0.08,0.4 z"
       id="path34" />
    <polygon
       class="f"
       points="50.78,47.38 51.57,50.28 50.02,50.7 40.37,53.34 38.66,53.8 37.87,50.91 39.77,50.39 49.42,47.75 "
       id="polygon36" />
    <path
       class="d"
       d="m 59.91,27.7 v 0.05 l -10.87,2.99 -2.9,0.8 -5.43,1.49 -11.43,3.14 -13.62,3.75 -2.9,0.79 -9.62,2.65 C 3.13005,43.34 3.12,43.31 3.11,43.29 2.94,42.95 2.77,42.61 2.63,42.26 A 2.4777,2.4777 0 0 1 2.46,41.89 C 2.29,41.51 2.13,41.11 1.98,40.70995 c -0.02,-0.04 -0.03,-0.08 -0.05,-0.12 L 19.71,35.7 l 2.9,-0.8 5.04,-1.38 14.72,-4.05 17.16,-4.72 v 0.02 q 0.12,0.64508 0.21,1.32 c 0.01,0.08 0.02,0.15 0.03,0.23 0.05,0.46 0.1,0.92 0.14,1.38 z"
       id="path38" />
    <path
       class="g"
       d="m 43.9294,37.77886 a 26.733,26.733 0 0 1 -2.41711,1.418 41.42129,41.42129 0 0 1 -7.31,2.86125 45.17518,45.17518 0 0 1 0.92568,-5.21154 c 0.18665,-0.75684 0.37864,-1.45075 0.57648,-2.09106 1.41161,-4.55672 3.08414,-6.33279 3.08414,-6.33279 l -0.01121,0.03922 c 0.08212,-0.10564 0.16,-0.21493 0.25121,-0.32263 2.52,-2.97578 6.37342,-3.84905 8.61357,-1.952 2.24015,1.89705 2.01363,5.84169 -0.50634,8.81746 -0.0912,0.1077 -0.18617,0.20252 -0.27683,0.30093 l 0.03684,-0.01752 a 12.74851,12.74851 0 0 1 -2.96643,2.49068 z"
       id="path40" />
    <path
       class="d"
       d="m 42.37,29.47 a 30.559,30.559 0 0 1 -1.66,3.56 53.18358,53.18358 0 0 1 -6.67,9.3 59.63221,59.63221 0 0 1 -4.76,-6.16 c -0.62,-0.94 -1.16,-1.82 -1.63,-2.65 -3.34,-5.91 -3.11,-9.19 -3.11,-9.19 l 0.03,0.05 C 24.56,24.2 24.54,24.02 24.54,23.83 a 9.5,9.5 0 0 1 19,0 c 0,0.19 -0.02,0.37006 -0.03,0.55 l 0.03,-0.05 a 13.28833,13.28833 0 0 1 -1.17,5.14 z"
       id="path42" />
    <circle
       class="h"
       cx="34.04327"
       cy="24.5"
       r="4.5233698"
       id="circle44" />
    <circle
       class="i"
       cx="34.04327"
       cy="24.5"
       r="2.83196"
       id="circle46" />
  </g>
</svg>
