<svg xmlns="http://www.w3.org/2000/svg" viewBox="0 0 11 11"><g transform="translate(-68.385 -172.48)"><circle cx="73.885" cy="177.98" r="2.86" fill="#fff" id="icon-fill"/><path style="line-height:normal;font-variant-ligatures:normal;font-variant-position:normal;font-variant-caps:normal;font-variant-numeric:normal;font-variant-alternates:normal;font-feature-settings:normal;text-indent:0;text-align:start;text-decoration-line:none;text-decoration-style:solid;text-decoration-color:#000;text-transform:none;text-orientation:mixed;shape-padding:0;isolation:auto;mix-blend-mode:normal" d="M73.885 174.855a3.13 3.13 0 0 0-3.125 3.126 3.129 3.129 0 0 0 3.125 3.125 3.13 3.13 0 0 0 3.125-3.125 3.13 3.13 0 0 0-3.125-3.126zm0 .53a2.592 2.592 0 0 1 2.595 2.596 2.592 2.592 0 0 1-2.595 2.595 2.592 2.592 0 0 1-2.596-2.595 2.592 2.592 0 0 1 2.596-2.596zm-.001.455c-.385 0-.9.11-1.121.202-.22.091-.367.183-.413.412l-.165 1.27v1.752h.285v.275c0 .334.49.334.49 0v-.275h1.848v.275c0 .334.49.334.49 0v-.275h.284v-1.75l-.165-1.272c-.046-.229-.192-.32-.413-.412-.22-.093-.736-.202-1.12-.202zm-.769.281h1.536c.152 0 .152.286 0 .286h-1.535c-.152 0-.152-.285 0-.286zm-.362.454h2.263c.066 0 .122.048.134.111l.134 1.002a.136.136 0 0 1-.13.17h-2.538a.136.136 0 0 1-.13-.17l.135-1.002a.135.135 0 0 1 .132-.11zm-.038 1.858a.259.259 0 0 1 0 .518.259.259 0 1 1 0-.518zm2.345.001a.258.258 0 0 1-.007.517.259.259 0 0 1-.26-.26.258.258 0 0 1 .267-.257z" color="#000" font-weight="400" font-family="sans-serif" white-space="normal" overflow="visible" id="icon-path"/></g></svg>