<svg xmlns="http://www.w3.org/2000/svg" id="bus-1" version="1.1" viewBox="0 0 11 11"><g id="bus-2" transform="translate(18.924 -2.797)"><g id="icon-container" transform="translate(-87.309 -169.684)"><circle id="icon-fill" cx="73.885" cy="177.98" r="2.86" fill="#fff"/><path id="icon-path" d="M73.885 174.855a3.13 3.13 0 0 0-3.125 3.126 3.129 3.129 0 0 0 3.125 3.125 3.13 3.13 0 0 0 3.125-3.125 3.13 3.13 0 0 0-3.125-3.126zm0 .53a2.592 2.592 0 0 1 2.595 2.596 2.592 2.592 0 0 1-2.595 2.595 2.592 2.592 0 0 1-2.596-2.595 2.592 2.592 0 0 1 2.596-2.596z" color="#000" overflow="visible" style="shape-padding:0;isolation:auto;mix-blend-mode:normal"/></g><g id="vehicle-glyph-container" transform="translate(-92.82 -180.4)"><path id="vehicle-glyph" d="M79.397 186.615c-.385 0-.9.11-1.12.202-.22.091-.368.183-.414.412l-.165 1.27v1.752h.285v.275c0 .334.49.334.49 0v-.275h1.848v.275c0 .334.49.334.49 0v-.275h.284v-1.75l-.165-1.272c-.046-.229-.192-.32-.413-.412-.22-.093-.736-.202-1.12-.202zm-.769.281h1.536c.152 0 .152.286 0 .286H78.63c-.152 0-.152-.285 0-.286zm-.362.454h2.263c.066 0 .122.048.134.111l.134 1.002a.136.136 0 0 1-.13.17H78.13a.136.136 0 0 1-.13-.17l.135-1.002a.135.135 0 0 1 .132-.11zm-.038 1.858c.346 0 .346.518 0 .518-.345 0-.345-.518 0-.518zm2.345.001c.345.005.338.522-.007.517a.259.259 0 1 1 .007-.517z" color="#000" overflow="visible" style="shape-padding:0;isolation:auto;mix-blend-mode:normal"/></g></g></svg>