<?xml version="1.0" encoding="UTF-8"?>
<svg width="1600.1" height="80.005" version="1.1" viewBox="0 0 16.668 .83339" xmlns="http://www.w3.org/2000/svg"><g transform="translate(220.36 -283.84)"><g transform="translate(2.4412 -1.0121)"><g transform="matrix(.087886 0 0 -.087886 -220.21 284.86)" fill-opacity="0"><path d="m0 0c-0.542 0-0.981-0.439-0.981-0.98v-7.524c0-0.539 0.439-0.978 0.981-0.978h7.521c0.541 0 0.98 0.439 0.98 0.978v7.524c0 0.541-0.439 0.98-0.98 0.98z" fill-opacity="0"/></g><g><g transform="matrix(.087886 0 0 -.087886 -219.87 285.02)"><path d="m0 0c0.365 0 0.66 0.297 0.66 0.662s-0.295 0.66-0.66 0.66-0.662-0.295-0.662-0.66 0.297-0.662 0.662-0.662"/></g><g transform="matrix(.087886 0 0 -.087886 -219.97 285.03)"><path d="m0 0c0.025 0.102-0.039 0.203-0.139 0.229l-0.551 0.132c-0.103 0.024-0.205-0.037-0.228-0.138l-0.463-1.916c-0.025-0.102 0.037-0.203 0.139-0.229l0.552-0.133c0.1-0.025 0.204 0.037 0.227 0.139z"/></g><g transform="matrix(.087886 0 0 -.087886 -219.75 285.63)"><path d="m0 0c0-4e-3 -2e-3 -8e-3 -2e-3 -0.01 0-0.084 0.068-0.152 0.152-0.152 0.077 0 0.141 0.059 0.151 0.133l1.109 6.017v0.012c0 0.082-0.066 0.15-0.15 0.15-0.076 0-0.135-0.058-0.151-0.132z"/></g><g transform="matrix(.087886 0 0 -.087886 -220.07 285.59)"><path d="m0 0c-6e-3 -0.031-8e-3 -0.062-8e-3 -0.094 0-0.258 0.207-0.465 0.465-0.465 0.211 0 0.389 0.141 0.445 0.332l0.799 3.307 0.762-3.287c0.049-0.203 0.232-0.352 0.449-0.352 0.258 0 0.465 0.207 0.465 0.465 0 0.035-4e-3 0.069-0.01 0.102l-1.045 4.367 0.088 0.385 0.069-0.303c0.062-0.197 0.242-0.217 0.242-0.217l1.076-0.273c0.021-4e-3 0.043-6e-3 0.064-6e-3 0.176 0 0.319 0.141 0.319 0.316 0 0.151-0.104 0.278-0.244 0.311l-0.932 0.234-0.256 1.039c-0.121 0.58-0.676 0.567-0.676 0.567-0.539 0.013-0.674-0.553-0.674-0.553z"/></g></g></g><g transform="translate(1.0792 -1.0722)"><g transform="matrix(.087886 0 0 -.087886 -220.52 284.92)" fill-opacity="0"><path d="m0 0c-0.542 0-0.982-0.441-0.982-0.982v-7.522c0-0.539 0.44-0.978 0.982-0.978h7.522c0.54 0 0.98 0.439 0.98 0.978v7.522c0 0.541-0.44 0.982-0.98 0.982z" fill-opacity="0"/></g><g transform="matrix(.087886 0 0 -.087886 -282.34 311.8)"><path d="m707.55 298.01h-0.525v6.596h0.525z"/><g transform="translate(705.16 303.39)"><path d="m0 0c0.375 0 0.644-0.309 0.7-0.477l0.459-1.511c0.092-0.325-0.321-0.459-0.42-0.143l-0.413 1.387h-0.238l0.692-2.465h-0.66v-1.924c0-0.328-0.493-0.326-0.493 0v1.936h-0.251v-1.932c0-0.332-0.495-0.332-0.495 0v1.92h-0.662l0.685 2.465h-0.227l-0.414-1.391c-0.098-0.303-0.515-0.179-0.42 0.147l0.46 1.511c0.049 0.172 0.266 0.477 0.643 0.477z"/></g><g transform="translate(704.66 303.51)"><path d="m0 0c0.296 0 0.536 0.24 0.536 0.535 0 0.297-0.24 0.537-0.536 0.537s-0.535-0.24-0.535-0.537c0-0.295 0.239-0.535 0.535-0.535"/></g><g transform="translate(709.86 303.52)"><path d="m0 0c0.296 0 0.536 0.238 0.536 0.535 0 0.295-0.24 0.535-0.536 0.535-0.295 0-0.535-0.24-0.535-0.535 0-0.297 0.24-0.535 0.535-0.535"/></g><g transform="translate(709.14 298.32)"><path d="m0 0c0-0.166 0.134-0.301 0.3-0.301s0.301 0.135 0.301 0.301v2.52h0.252v-2.52c0-0.166 0.133-0.301 0.299-0.301s0.3 0.135 0.3 0.301l2e-3 4.344h0.25v-1.602c0-0.322 0.42-0.322 0.419 0v1.637c0 0.355-0.276 0.703-0.692 0.703l-1.421 2e-3c-0.38 0-0.685-0.311-0.685-0.695v-1.647c0-0.318 0.422-0.318 0.422 0v1.602h0.254z"/></g></g></g><g transform="translate(-3.3018 -3.4075)"><g transform="matrix(.087886 0 0 -.087886 -216.97 287.25)" fill-opacity="0"><path d="m0 0c-0.541 0-0.981-0.439-0.981-0.98v-7.522c0-0.541 0.44-0.98 0.981-0.98h7.521c0.541 0 0.981 0.439 0.981 0.98v7.522c0 0.541-0.44 0.98-0.981 0.98z" fill-opacity="0"/></g><g transform="matrix(.087886 0 0 -.087886 -216.58 287.37)"><path d="m0 0c1.269 0 2.296-1.027 2.296-2.295 0-1.269-1.027-2.297-2.296-2.297l-1.478 2e-3v-2.18h-1.323v6.77zm0.021-3.285c0.561 0 1.016 0.455 1.016 1.015 0 0.563-0.455 1.018-1.016 1.018l-1.499 2e-3v-2.035z"/></g></g><g transform="matrix(6.3278 0 0 6.3278 1174.7 -1521.8)"><g transform="matrix(.013889 0 0 -.013889 -220.19 285.34)" fill-opacity="0"><path d="m0 0c-0.542 0-0.982-0.439-0.982-0.98v-7.524c0-0.539 0.44-0.978 0.982-0.978h7.521c0.541 0 0.98 0.439 0.98 0.978v7.524c0 0.541-0.439 0.98-0.98 0.98z" fill-opacity="0"/></g><g transform="matrix(.013889 0 0 -.013889 -220.14 285.37)"><path d="M 0,0 C 0.377,0.01 0.674,0.323 0.663,0.697 0.654,1.076 0.341,1.37 -0.036,1.363 -0.41,1.354 -0.707,1.04 -0.699,0.664 -0.69,0.288 -0.376,-0.01 0,0" fill="#231f20"/></g><g transform="matrix(.013889 0 0 -.013889 -220.11 285.4)"><path d="m0 0-0.998 0.545-0.825 1.284c-0.133 0.165-0.34 0.287-0.576 0.284-0.178-6e-3 -0.335-0.086-0.459-0.193l-1.246-1.243c-0.041-0.043-0.069-0.098-0.079-0.157l-0.159-1.37c-2e-3 -0.014-2e-3 -0.027-3e-3 -0.042 5e-3 -0.17 0.147-0.301 0.317-0.298 0.159 3e-3 0.281 0.138 0.299 0.287l0.13 1.174 0.434 0.431-0.388-3.293-0.718-1.554c-0.022-0.054-0.044-0.13-0.042-0.203 6e-3 -0.254 0.218-0.455 0.473-0.449 0.181 5e-3 0.327 0.113 0.406 0.268l0.771 1.676c0.015 0.045 0.069 0.155 0.071 0.205l0.091 0.811 0.793-2.64c0.068-0.184 0.241-0.324 0.45-0.318 0.255 7e-3 0.457 0.217 0.451 0.472-2e-3 0.033-0.01 0.054-0.012 0.093l-1.103 3.66 0.142 1.189 0.309-0.48c0.022-0.032 0.052-0.061 0.085-0.081l1.09-0.597c0.052-0.017 0.094-0.03 0.143-0.03 0.171 5e-3 0.306 0.146 0.301 0.317-3e-3 0.106-0.061 0.201-0.148 0.252"/></g></g><g transform="matrix(6.3278 0 0 6.3278 1173.8 -1520.1)"><g transform="matrix(.013889 0 0 -.013889 -219.78 285.09)" fill-opacity="0"><path d="m0 0c-0.54 0-0.979-0.439-0.979-0.979v-7.522c0-0.541 0.439-0.981 0.979-0.981h7.522c0.541 0 0.98 0.44 0.98 0.981v7.522c0 0.54-0.439 0.979-0.98 0.979z" fill-opacity="0"/></g><g><g transform="matrix(.013889 0 0 -.013889 -219.77 285.14)"><path d="m0 0c-0.035-0.072-0.06-0.152-0.074-0.238-6e-3 -0.043-0.01-0.086-0.01-0.129l0.031-1.969-0.679-1.465c-0.024-0.043-0.041-0.093-0.049-0.146-0.037-0.242 0.129-0.467 0.371-0.504 0.187-0.029 0.367 0.066 0.453 0.224l0.748 1.602c0.016 0.037 0.029 0.076 0.035 0.119 2e-3 0.02 4e-3 0.041 4e-3 0.061l-6e-3 1.216 1.15-0.501 0.185-1.19c0.037-0.174 0.18-0.312 0.365-0.342 0.243-0.035 0.467 0.131 0.504 0.371 6e-3 0.041 6e-3 0.083 2e-3 0.122l-0.226 1.435c-0.028 0.139-0.119 0.258-0.248 0.318l-1.028 0.458 0.655 1.138 0.324-0.412c0.033-0.037 0.076-0.068 0.125-0.088l1.236-0.361c0.164-0.035 0.332 0.051 0.397 0.209 0.072 0.179-0.014 0.383-0.192 0.455-6e-3 2e-3 -0.011 4e-3 -0.017 6e-3l-1.074 0.316-0.809 0.971c-0.121 0.129-0.283 0.22-0.471 0.25-0.328 0.049-0.64-0.108-0.804-0.373z"/></g><g transform="matrix(.013889 0 0 -.013889 -219.72 285.18)"><path d="m0 0-0.078-0.59-2.127-0.517 0.02-0.366h5.188c0.183 0 0.332 0.149 0.332 0.332l-6e-3 6.993-0.711 0.166-0.408-1.838-0.683-0.287-0.605-1.696 0.575-1.297-0.162-0.498z"/></g><g transform="matrix(.013889 0 0 -.013889 -219.74 285.12)"><path d="m0 0c0.365 0 0.662 0.297 0.662 0.662s-0.297 0.662-0.662 0.662-0.662-0.297-0.662-0.662 0.297-0.662 0.662-0.662"/></g><g transform="matrix(.013889 0 0 -.013889 -219.76 285.12)"><path d="m0 0c0.051 0.09 0.021 0.207-0.07 0.258l-0.321 0.187c-0.091 0.051-0.207 0.022-0.259-0.07l-0.989-1.705c-0.051-0.09-0.021-0.205 0.071-0.258l0.322-0.185c0.09-0.053 0.205-0.022 0.258 0.068z"/></g></g></g><g transform="translate(1.6232 -3.5192)"><g transform="matrix(.087877 0 0 -.087877 -217.73 287.36)" fill-opacity="0"><path d="m0 0c-0.54 0-0.979-0.44-0.979-0.981v-7.521c0-0.542 0.439-0.981 0.979-0.981h7.521c0.542 0 0.982 0.439 0.982 0.981v7.521c0 0.541-0.44 0.981-0.982 0.981z" fill-opacity="0"/></g><g transform="matrix(.087877 0 0 -.087877 -217.44 287.47)"><path d="m0 0c2e-3 0.58 0.877 0.58 0.877-0.017v-2.436l3.41-2.051v-0.9l-3.394 1.117v-1.821l0.785-0.615v-0.711l-1.211 0.376-1.211-0.376v0.711l0.777 0.615v1.821l-3.396-1.117v0.9l3.363 2.051z"/></g></g><g transform="translate(.65205 -.70145)"><g transform="matrix(.087877 0 0 -.087877 -220.05 322.19)" fill-opacity="0"><g transform="translate(46.898 428.38)" fill-opacity="0"><path d="m0 0c-0.541 0-0.981-0.44-0.981-0.98v-7.522c0-0.541 0.44-0.981 0.981-0.981h7.522c0.541 0 0.981 0.44 0.981 0.981v7.522c0 0.54-0.44 0.98-0.981 0.98z" fill-opacity="0"/></g></g><g transform="matrix(.087877 0 0 -.087877 -215.31 285.19)"><path d="m0 0-3.258 6.236-3.256-6.236h-0.689v-0.449h7.838v0.449zm-5.002 0 1.744 3.342 1.746-3.342z"/></g></g><g transform="matrix(1 0 0 -1 1.4855 569.22)"><g transform="matrix(.087877 0 0 -.087877 -220.05 322.19)" fill-opacity="0"><g transform="translate(46.898 428.38)" fill-opacity="0"><path d="m0 0c-0.541 0-0.981-0.44-0.981-0.98v-7.522c0-0.541 0.44-0.981 0.981-0.981h7.522c0.541 0 0.981 0.44 0.981 0.981v7.522c0 0.54-0.44 0.98-0.981 0.98z" fill-opacity="0"/></g></g><g transform="matrix(.087877 0 0 -.087877 -215.31 285.19)"><path d="m0 0-3.258 6.236-3.256-6.236h-0.689v-0.449h7.838v0.449zm-5.002 0 1.744 3.342 1.746-3.342z"/></g></g><g transform="translate(5.8076 -3.5545)"><g transform="matrix(.087904 0 0 -.087904 -219.41 287.4)" fill-opacity="0"><path d="m0 0c-0.541 0-0.981-0.44-0.981-0.98v-7.52c0-0.541 0.44-0.98 0.981-0.98h7.519c0.541 0 0.981 0.439 0.981 0.98v7.52c0 0.54-0.44 0.98-0.981 0.98z" fill-opacity="0"/></g><g transform="matrix(.087904 0 0 -.087904 -266.82 320.16)"><g transform="translate(547.15 364.82)"><path d="m0 0c-0.18 0-0.352 0.04-0.506 0.109-0.159 0.074-0.337 0.117-0.523 0.117s-0.364-0.043-0.522-0.117c-0.155-0.069-0.327-0.109-0.508-0.109-0.179 0-0.352 0.04-0.507 0.109-0.159 0.074-0.336 0.117-0.522 0.117s-0.364-0.043-0.523-0.117c-0.154-0.069-0.327-0.109-0.507-0.109s-0.354 0.04-0.507 0.109c-0.159 0.074-0.337 0.117-0.522 0.117-0.187 0-0.366-0.043-0.523-0.117-0.154-0.069-0.327-0.109-0.507-0.109s-0.353 0.04-0.508 0.109c-0.158 0.074-0.336 0.117-0.522 0.117s-0.364-0.043-0.522-0.117c-0.155-0.069-0.328-0.109-0.507-0.109v0.76c0.179 0 0.352 0.041 0.507 0.11 0.158 0.073 0.336 0.116 0.522 0.116s0.364-0.043 0.522-0.116c0.155-0.069 0.328-0.11 0.508-0.11s0.353 0.041 0.507 0.11c0.157 0.073 0.336 0.116 0.523 0.116 0.185 0 0.363-0.043 0.522-0.116 0.153-0.069 0.327-0.11 0.507-0.11s0.353 0.041 0.507 0.11c0.159 0.073 0.337 0.116 0.523 0.116s0.363-0.043 0.522-0.116c0.155-0.069 0.328-0.11 0.507-0.11 0.181 0 0.353 0.041 0.508 0.11 0.158 0.073 0.336 0.116 0.522 0.116s0.364-0.043 0.523-0.116c0.154-0.069 0.326-0.11 0.506-0.11z"/></g><g transform="translate(538.92 368.08)"><path d="m0 0-3e-3 -1.795c0.18 0 0.353 0.04 0.507 0.11 0.158 0.073 0.337 0.116 0.522 0.116 0.186 0 0.365-0.043 0.522-0.116 0.155-0.07 0.328-0.11 0.509-0.11 0.179 0 0.352 0.04 0.506 0.11 0.158 0.073 0.336 0.116 0.523 0.116 0.185 0 0.363-0.043 0.522-0.116 0.154-0.07 0.328-0.11 0.507-0.11 0.18 0 0.354 0.04 0.507 0.11 0.159 0.073 0.337 0.116 0.524 0.116 0.185 0 0.363-0.043 0.521-0.116 0.155-0.07 0.328-0.11 0.508-0.11 0.051 0 0.099 0.011 0.149 0.017 0.091 0.019 0.183 0.028 0.271 0.063l6e-3 3e-3c0.654 0.266 1.218 0.923 1.571 1.413l0.175 0.299z"/></g><g transform="translate(545.45 370.1)"><path d="m0 0c-0.201 0.445-0.742 0.408-0.742 0.408h-5.79l-1e-3 -2.132h7.259zm-3.754-1.261c0-0.083-0.068-0.15-0.15-0.15h-0.67c-0.082 0-0.15 0.067-0.15 0.15v1.019c0 0.083 0.068 0.15 0.15 0.15h0.67c0.082 0 0.15-0.067 0.15-0.15zm1.392 0c0-0.083-0.068-0.15-0.15-0.15h-0.674c-0.083 0-0.15 0.067-0.15 0.15v1.019c0 0.083 0.067 0.15 0.15 0.15h0.674c0.082 0 0.15-0.067 0.15-0.15zm-2.778 0c0-0.083-0.068-0.15-0.15-0.15h-0.674c-0.082 0-0.15 0.067-0.15 0.15v1.019c0 0.083 0.068 0.15 0.15 0.15h0.674c0.082 0 0.15-0.067 0.15-0.15zm3.271 1.169h1.207l0.011 1e-3h7e-3c0.014 1e-3 0.332 0.013 0.438-0.224l0.461-1.096h-1.57z"/></g></g></g><g transform="translate(4.0562 -2.5517)"><path d="m-216.83 286.4c-0.0475 0-0.0861 0.0387-0.0861 0.0861v0.66116c0 0.0475 0.0387 0.086 0.0861 0.086h0.66107c0.0475 0 0.0861-0.0386 0.0861-0.086v-0.66116c0-0.0475-0.0387-0.0861-0.0861-0.0861z" fill-opacity="0"/><g transform="matrix(.087886 0 0 -.087886 -278.65 322.23)"><path d="m706.81 404.5c0-0.261-0.237-0.539-0.545-0.539v-4.402c0-0.624-0.853-0.624-0.853 0v4.402c-0.299 0-0.56 0.231-0.56 0.578v2.422c0 0.211 0.305 0.22 0.305-8e-3v-1.791h0.549-0.023v1.805c0 0.202 0.285 0.21 0.285-8e-3v-1.797h0.545v1.805c0 0.199 0.297 0.207 0.297-8e-3z"/><path d="m709.48 406.4v-6.836c0-0.611-0.854-0.603-0.854 0v2.711h-0.455v4.125c0 0.959 1.309 0.959 1.309 0"/></g></g><g transform="translate(5.6028 -2.5905)"><path d="m-217.54 286.43c-0.0476 0-0.0863 0.0387-0.0863 0.0861v0.66117c0 0.0474 0.0387 0.086 0.0863 0.086h0.66108c0.0476 0 0.0862-0.0386 0.0862-0.086v-0.66114c0-0.0475-0.0387-0.0861-0.0862-0.0861z" fill-opacity="0"/><g transform="matrix(.087886 0 0 -.087886 -293.8 345.75)"><path d="m867.14 668.49c0 0.972 0.789 1.759 1.759 1.759 0.972 0 1.76-0.787 1.76-1.759 0-0.973-0.788-1.759-1.76-1.759-0.97 0-1.759 0.786-1.759 1.759m1.759-1.435c0.792 0 1.434 0.642 1.434 1.435 0 0.792-0.642 1.434-1.434 1.434-0.79 0-1.433-0.642-1.433-1.434 0-0.793 0.643-1.435 1.433-1.435"/><path d="m872.32 668.47c0 0.973 0.789 1.759 1.761 1.759 0.97 0 1.758-0.786 1.758-1.759 0-0.972-0.788-1.759-1.758-1.759-0.972 0-1.761 0.787-1.761 1.759m1.761-1.434c0.79 0 1.432 0.642 1.432 1.434s-0.642 1.435-1.432 1.435c-0.792 0-1.435-0.643-1.435-1.435s0.643-1.434 1.435-1.434"/><path d="m872.33 672.77c0.365 0 0.662 0.295 0.662 0.66s-0.297 0.662-0.662 0.662-0.662-0.297-0.662-0.662 0.297-0.66 0.662-0.66"/><path d="m872.35 671.16c-0.096-2e-3 -0.199 0.046-0.275 0.166l-0.43 0.672-0.887-0.878 0.822-0.433c0.338-0.162 0.288-0.459 0.288-0.459v-1.861c0-0.211-0.17-0.383-0.381-0.383s-0.381 0.172-0.381 0.383v1.49l-1.426 0.792c-0.17 0.095-0.285 0.277-0.285 0.484 0 0.142 0.053 0.273 0.142 0.371l1.399 1.401c0.174 0.196 0.416 0.165 0.416 0.165 0.293 0 0.447-0.256 0.447-0.256l0.727-1.138 1.103 2e-3c0.397 0 0.397-0.518 0-0.518z"/></g></g><g transform="translate(4.4766 -1.6584)"><g transform="matrix(.087877 0 0 -.087877 -215.58 285.5)" fill-opacity="0"><path d="m0 0c-0.54 0-0.98-0.44-0.98-0.98v-7.522c0-0.542 0.44-0.981 0.98-0.981h7.522c0.54 0 0.98 0.439 0.98 0.981v7.522c0 0.54-0.44 0.98-0.98 0.98z" fill-opacity="0"/></g><g transform="matrix(.087877 0 0 -.087877 -277.4 322.45)"><g transform="translate(708.94 418.01)"><path d="m0 0c-0.129-0.125-0.304-0.174-0.496-0.174-0.245 0-0.468 0.1-0.596 0.289-0.127-0.193-0.351-0.289-0.599-0.289-0.246 0-0.466 0.102-0.594 0.291-0.127-0.195-0.351-0.291-0.602-0.291-0.181 0-0.347 0.041-0.472 0.153l-0.095 0.679c0.13-0.172 0.336-0.283 0.567-0.283 0.251 0 0.475 0.123 0.602 0.318 0.128-0.189 0.348-0.318 0.594-0.318 0.248 0 0.472 0.123 0.599 0.316 0.128-0.189 0.351-0.316 0.596-0.316 0.25 0 0.471 0.129 0.597 0.324z"/></g><g transform="translate(709.12 412.27)"><path d="m0 0 1.083 6.913-0.729-7e-3 -0.985-6.177h-2.454l-0.985 6.177-0.729 7e-3 1.083-6.913z"/></g></g></g><g transform="matrix(1.1429 0 0 1.1429 40.576 -42.699)"><path d="m-219.48 285.71c-0.0417 0-0.0755 0.0338-0.0755 0.0753v0.57832c0 0.0416 0.0338 0.0755 0.0755 0.0755h0.57824c0.0417 0 0.0754-0.0339 0.0754-0.0755v-0.57832c0-0.0415-0.0337-0.0753-0.0754-0.0753z" fill-opacity="0"/><g transform="matrix(.076884 0 0 -.076884 -260.94 316.32)"><g transform="translate(538.8 392.55)"><path d="M 0,0 C 0.562,0.663 1.588,1.128 2.467,0.981 2.565,2.189 2.428,3.318 3.03,4.431 1.162,4.308 0.295,1.455 0,0"/></g><g transform="translate(545.42 394.67)"><path d="M 0,0 C 0.393,0.467 1.32,0.705 1.807,0.268 0.537,2.041 -1.033,3.18 -3.265,2.422 -1.52,1.891 -0.297,0.263 0,0"/></g><g transform="translate(545.07 394.59)"><path d="m0 0c-0.61 0.851-2.529 2.212-2.952 2.127-0.451-0.09-0.575-2.645-0.534-3.193 0.267 0.501 0.676 0.88 1.15 1.116l1.947-5.299 0.266 0.066-1.965 5.34c0.651 0.241 1.397 0.22 2.088-0.157"/></g></g></g><g transform="matrix(1.1429 0 0 1.1429 40.488 -42.698)"><g transform="matrix(.0769 0 0 -.0769 -218.69 285.72)" fill-opacity="0"><path d="m0 0c-0.542 0-0.981-0.441-0.981-0.982v-7.522c0-0.539 0.439-0.978 0.981-0.978h7.521c0.542 0 0.982 0.439 0.982 0.978v7.522c0 0.541-0.44 0.982-0.982 0.982z" fill-opacity="0"/></g><g><g transform="matrix(.0769 0 0 -.0769 -218.09 286.34)"><path d="m0 0c-0.172 0-0.336 0.039-0.482 0.105-0.151 0.069-0.321 0.11-0.498 0.11-0.178 0-0.348-0.041-0.499-0.11-0.146-0.066-0.31-0.105-0.482-0.105s-0.336 0.039-0.482 0.105c-0.153 0.069-0.323 0.11-0.498 0.11-0.178 0-0.348-0.041-0.498-0.11-0.147-0.066-0.313-0.105-0.483-0.105-0.172 0-0.336 0.039-0.484 0.105-0.151 0.069-0.321 0.11-0.496 0.11-0.178 0-0.348-0.041-0.498-0.11-0.147-0.066-0.313-0.105-0.485-0.105-0.17 0-0.336 0.039-0.482 0.105-0.151 0.069-0.32 0.11-0.498 0.11-0.176 0-0.346-0.041-0.496-0.11-0.149-0.066-0.313-0.105-0.485-0.105v0.725c0.172 0 0.336 0.039 0.485 0.103 0.15 0.07 0.32 0.111 0.496 0.111 0.178 0 0.347-0.041 0.498-0.111 0.146-0.064 0.312-0.103 0.482-0.103 0.172 0 0.338 0.039 0.485 0.103 0.15 0.07 0.32 0.111 0.498 0.111 0.175 0 0.345-0.041 0.496-0.111 0.148-0.064 0.312-0.103 0.484-0.103 0.17 0 0.336 0.039 0.483 0.103 0.15 0.07 0.32 0.111 0.498 0.111 0.175 0 0.345-0.041 0.498-0.111 0.146-0.064 0.31-0.103 0.482-0.103s0.336 0.039 0.482 0.103c0.151 0.07 0.321 0.111 0.499 0.111 0.177 0 0.347-0.041 0.498-0.111 0.146-0.064 0.31-0.103 0.482-0.103z"/></g><g transform="matrix(.0769 0 0 -.0769 -218.18 286.18)"><path d="m0 0c0.516 0 0.934 0.42 0.934 0.936 0 0.515-0.418 0.933-0.934 0.933s-0.934-0.418-0.934-0.933c0-0.516 0.381-0.936 0.934-0.936"/></g><g transform="matrix(.0769 0 0 -.0769 -218.6 286.22)"><path d="m0 0c0.072-0.018 0.141-0.043 0.205-0.072 0.147-0.067 0.313-0.106 0.482-0.106 0.172 0 0.338 0.039 0.485 0.106 0.15 0.068 0.32 0.111 0.498 0.111 0.176 0 0.346-0.043 0.496-0.111 0.148-0.067 0.312-0.106 0.484-0.106 0.17 0 0.336 0.039 0.483 0.106 0.15 0.068 0.32 0.111 0.498 0.111 0.176 0 0.346-0.043 0.498-0.111 0.146-0.067 0.31-0.106 0.482-0.106 0.125 0 0.246 0.022 0.36 0.057l-1.557 2.81 1.811 0.33c0.265 0.051 0.459 0.26 0.459 0.528 0 0.295-0.241 0.531-0.534 0.531-0.021 0-0.041 0-0.06-2e-3l-2.797-0.51c-0.197-0.045-0.457-0.332-0.309-0.685 8e-3 -0.02 0.016-0.037 0.024-0.057l0.73-1.318z"/></g></g></g><g transform="translate(9.6498 -3.604)"><g transform="matrix(.087886 0 0 -.087886 -218.26 287.45)" fill-opacity="0"><path d="m0 0c-0.541 0-0.982-0.44-0.982-0.981v-7.522c0-0.54 0.441-0.979 0.982-0.979h7.521c0.542 0 0.982 0.439 0.982 0.979v7.522c0 0.541-0.44 0.981-0.982 0.981z" fill-opacity="0"/></g><path d="m-218.03 287.69h0.21374v-0.0841h-0.21374zm0.19062 0.19686-0.0516 0.0627 0.0896 0.10915zm-0.0137-0.0621-0.0164-0.0752h-0.10714l-0.0165 0.075 0.0701 0.0858zm-0.19185 0.23395 0.0896-0.10915-0.0517-0.0627zm-0.0239 0.10775-9e-3 0.0414-0.0592-1.7e-4 0.10142-0.45798-0.0585-4.4e-4v-0.16671l0.17112-0.0767 0.1712 0.0767v0.16671l-0.0585 4.4e-4 0.10124 0.45798-0.0591 1.7e-4 -9e-3 -0.0411-0.1458-0.1777z"/></g><g transform="translate(12.877 -.93806)"><g transform="matrix(.08783 0 0 -.08783 -220.65 284.78)" fill-opacity="0"><path d="m0 0c-0.542 0-0.982-0.441-0.982-0.982v-7.524c0-0.541 0.44-0.982 0.982-0.982h7.527c0.541 0 0.981 0.441 0.981 0.982v7.524c0 0.541-0.44 0.982-0.981 0.982z" fill-opacity="0"/></g><g transform="matrix(.08783 0 0 -.08783 -224.77 331.74)"><g transform="translate(49.906 532.42)"><path d="m0 0c0.367 0 0.662 0.299 0.662 0.662 0 0.367-0.295 0.662-0.662 0.662-0.365 0-0.662-0.295-0.662-0.662 0-0.363 0.297-0.662 0.662-0.662"/></g><g transform="translate(50.331 526.74)"><path d="m0 0c-1.086 0-1.967 0.879-1.967 1.967 0 0.596 0.27 1.127 0.69 1.488l-0.035 0.615c-0.704-0.439-1.176-1.213-1.176-2.103 0-1.373 1.113-2.488 2.488-2.488 1.012 0 1.877 0.609 2.266 1.476l-0.35 0.606c-0.187-0.889-0.971-1.561-1.916-1.561"/></g><g transform="translate(54.24 527.91)"><path d="m0 0h-0.459l-1.119 1.93c-0.069 0.119-0.193 0.184-0.32 0.188h-1.655l-0.018 0.501h1.204c0.165 0.01 0.3 0.135 0.3 0.302 0 0.166-0.13 0.294-0.3 0.3h-1.238l-0.043 0.569c-0.024 0.348-0.323 0.621-0.674 0.601-0.354-0.019-0.621-0.323-0.604-0.675l0.115-2.01c0.031-0.352 0.326-0.603 0.675-0.602h2.147l0.878-1.519c0.072-0.117 0.206-0.182 0.341-0.181v-6e-3h0.77c0.165 0.01 0.3 0.135 0.3 0.302 0 0.166-0.13 0.294-0.3 0.3"/></g></g></g><g transform="translate(9.0746 -2.6824)"><g transform="matrix(.087867 0 0 -.087867 -216.01 286.53)" fill-opacity="0"><path d="m0 0c-0.541 0-0.98-0.44-0.98-0.981v-7.522c0-0.541 0.439-0.981 0.98-0.981h7.521c0.539 0 0.979 0.44 0.979 0.981v7.522c0 0.541-0.44 0.981-0.979 0.981z" fill-opacity="0"/></g><g transform="matrix(.087867 0 0 -.087867 -277.83 326.83)"><g transform="translate(710.9 455.95)"><path d="m0 0h-0.941l0.757 0.305c0.082 0.033 0.122 0.125 0.088 0.206-0.033 0.081-0.125 0.12-0.205 0.088 0 0-0.43-0.173-0.852-0.344 0.343 0.341 0.696 0.691 0.696 0.691 0.031 0.031 0.047 0.072 0.047 0.112 0 0.041-0.016 0.081-0.046 0.111-0.062 0.063-0.161 0.063-0.224 1e-3l-0.981-0.973 5e-3 1.384c0 0.087-0.071 0.158-0.158 0.158s-0.158-0.07-0.159-0.157c0 0-3e-3 -0.914-4e-3 -1.384-0.316 0.318-0.879 0.887-0.879 0.887-0.062 0.061-0.162 0.062-0.224 0s-0.063-0.162-1e-3 -0.224l0.612-0.617-0.881 0.352c-0.081 0.032-0.173-8e-3 -0.205-0.089-0.033-0.081 7e-3 -0.173 0.088-0.205l0.758-0.302h-0.908c-0.132 0-0.239-0.106-0.239-0.237v-5.044c0-0.132 0.107-0.237 0.239-0.237h3.617c0.131 0 0.238 0.105 0.238 0.237v5.044c0 0.131-0.107 0.237-0.238 0.237m-0.236-2.192h-1.42v1.717h1.42zm-1.737 0h-1.408v1.717h1.408zm-1.408-0.316h1.408v-2.536h-1.408zm1.725 0h1.42v-2.536h-1.42z"/></g><g transform="translate(706.35 450.78)"><path d="m0 0h-0.093c-0.053 0.062-0.074 0.137-0.057 0.231 0.027 0.155 0.138 0.285 0.191 0.303v2e-3c0.076 0.027 0.131 0.099 0.131 0.184l5e-3 4.062c0 0.109-0.089 0.197-0.198 0.197 0 0-0.639 2e-3 -0.864 3e-3 0 0.192 2e-3 0.455 2e-3 0.455 0 0.079-0.048 0.151-0.122 0.182-0.073 0.03-0.158 0.014-0.216-0.042l-1.375-1.365c-0.24-0.239-0.431-0.694-0.432-1.035l-0.011-2.84c0-0.399 0.322-0.724 0.721-0.725l2.317-8e-3c0.108 0 0.197 0.088 0.198 0.197v1e-3c0 0.109-0.088 0.197-0.197 0.198m-0.219 4.585c0-0.339-4e-3 -3.328-4e-3 -3.667h-2.07l1.41 1.182-3e-3 2.486c0.128 0 0.547-1e-3 0.667-1e-3m-2.424-4.25v0.188h2.176c-0.033-0.071-0.059-0.147-0.073-0.224-0.019-0.106-0.01-0.204 0.015-0.298l-1.791 6e-3c-0.181 1e-3 -0.327 0.148-0.327 0.328"/></g></g></g><g transform="translate(12.341 -2.7318)"><g transform="matrix(.087877 0 0 -.087877 -217.7 287.32)" fill-opacity="0"><path d="m0 0c0-0.539-0.439-0.979-0.981-0.979h-7.522c-0.541 0-0.981 0.44-0.981 0.979v7.521c0 0.542 0.44 0.983 0.981 0.983h7.522c0.542 0 0.981-0.441 0.981-0.983z" fill-opacity="0"/></g><path d="m-218.24 287.2h-0.0995v-0.28393h0.0995zm0.24105-0.28393h0.0996v0.28393h-0.0996zm-0.17593 0h0.11081v0.28393h-0.11081zm-0.26055 0.28393-0.0417 0.0688 0.71786-1e-3 -0.039-0.0676h-0.0359v-0.28393h0.0702v-0.0989h-0.0532l-0.29658-0.10053-0.30221 0.10053h-0.0544v0.0989h0.0658v0.28393z"/></g><g transform="translate(15.088 -1.436)"><g transform="matrix(.087812 0 0 -.087812 -220.36 285.28)" fill-opacity="0"><path d="m0 0c-0.542 0-0.981-0.441-0.981-0.982v-7.526c0-0.541 0.439-0.982 0.981-0.982h7.526c0.542 0 0.982 0.441 0.982 0.982v7.526c0 0.541-0.44 0.982-0.982 0.982z" fill-opacity="0"/></g><g transform="matrix(.087812 0 0 -.087812 -219.97 285.63)"><path d="m0 0v1.697h0.587c0.244 0 0.286-0.16 0.316-0.191 0.091-0.088 0.153-0.141 0.282-0.141h0.65v1.442h-0.65c-0.129 0-0.191 0.052-0.282 0.142-0.03 0.028-0.072 0.19-0.316 0.19h-0.897v-2.94l-0.41 0.268-3.612-2.332h0.847v-2.819h2.05v2.239h1.425v-2.188h2.052v2.768h0.844z"/></g></g><g transform="matrix(1 0 0 -1 14.007 571.25)"><g transform="matrix(.087877 0 0 -.087877 -217.7 287.32)" fill-opacity="0"><path d="m0 0c0-0.539-0.439-0.979-0.981-0.979h-7.522c-0.541 0-0.981 0.44-0.981 0.979v7.521c0 0.542 0.44 0.983 0.981 0.983h7.522c0.542 0 0.981-0.441 0.981-0.983z" fill-opacity="0"/></g><path d="m-218.24 287.2h-0.0995v-0.28393h0.0995zm0.24105-0.28393h0.0996v0.28393h-0.0996zm-0.17593 0h0.11081v0.28393h-0.11081zm-0.26055 0.28393-0.0417 0.0688 0.71786-1e-3 -0.039-0.0676h-0.0359v-0.28393h0.0702v-0.0989h-0.0532l-0.29658-0.10053-0.30221 0.10053h-0.0544v0.0989h0.0658v0.28393z"/></g></g></svg>
