<svg xmlns="http://www.w3.org/2000/svg" width="1840" height="80.005" viewBox="0 0 19.167 0.833"><path d="M2.591.008a.086.086 0 0 0-.086.086v.661c0 .048.039.086.086.086h.661a.086.086 0 0 0 .086-.086V.094a.086.086 0 0 0-.086-.086z" fill="none" fill-opacity="0"/><path d="M2.931.168a.058.058 0 1 0 0-.116.058.058 0 0 0 0 .116M2.831.178a.017.017 0 0 0-.012-.02L2.771.146a.016.016 0 0 0-.02.012L2.71.327a.017.017 0 0 0 .012.02l.049.012a.016.016 0 0 0 .02-.013zM3.051.778a.013.013 0 0 0 .027.002l.097-.528V.25a.013.013 0 0 0-.013-.014c-.007 0-.012.005-.013.012zM2.731.738v.008a.04.04 0 0 0 .08.012l.07-.29.067.288a.04.04 0 0 0 .08-.019L2.934.353 2.943.32l.006.026c.006.018.021.02.021.02l.095.023a.028.028 0 0 0 .012-.055l-.082-.02-.022-.091c-.01-.051-.06-.05-.06-.05-.047-.001-.059.049-.059.049z"/><path d="M.92.008a.086.086 0 0 0-.087.086v.661c0 .048.039.086.086.086h.661a.086.086 0 0 0 .086-.086v-.66A.086.086 0 0 0 1.58.007z" fill="none" fill-opacity="0"/><path d="M1.283.697h-.046v-.58h.046zM1.073.224a.07.07 0 0 1 .061.042l.04.133c.009.028-.027.04-.036.012L1.102.29H1.08l.06.217h-.058v.17c0 .028-.043.028-.043 0V.504h-.022v.17c0 .029-.043.029-.043 0V.506H.916L.976.29h-.02L.92.412C.912.438.875.427.883.399l.04-.133A.06.06 0 0 1 .98.224zM1.029.214a.047.047 0 1 0 0-.095.047.047 0 0 0 0 .095M1.486.213a.047.047 0 1 0 0-.094.047.047 0 0 0 0 .094M1.423.67a.026.026 0 1 0 .052 0V.448h.023V.67a.026.026 0 1 0 .052 0V.288h.022v.14c0 .029.037.029.037 0V.286a.061.061 0 0 0-.06-.062h-.125a.06.06 0 0 0-.06.06V.43c0 .028.036.028.036 0V.288h.023z"/><path d="M.088.002A.086.086 0 0 0 .002.09v.66c0 .048.039.087.086.087H.75A.086.086 0 0 0 .835.75V.089A.086.086 0 0 0 .75.002z" fill="none" fill-opacity="0"/><path d="M.478.123a.202.202 0 1 1 0 .403h-.13v.191H.232V.123zM.48.41a.09.09 0 1 0 0-.178H.348V.41z"/><path d="M1.753-.013a.086.086 0 0 0-.087.086v.661c0 .048.04.086.087.086h.66A.086.086 0 0 0 2.5.734v-.66a.086.086 0 0 0-.086-.087z" fill="none" fill-opacity="0"/><path d="M2.07.177a.06.06 0 1 0-.003-.12.06.06 0 0 0 .002.12" fill="#231f20"/><path d="M2.259.367 2.17.319 2.1.206a.065.065 0 0 0-.05-.025.066.066 0 0 0-.041.017l-.11.11a.027.027 0 0 0-.007.013l-.014.12v.004c0 .015.013.026.028.026.014 0 .025-.012.026-.025l.012-.103.038-.038-.034.29-.063.136a.04.04 0 0 0 .038.057c.015 0 .028-.01.035-.023l.068-.148C2.026.613 2.03.604 2.03.6L2.04.53l.07.231a.042.042 0 0 0 .04.028.04.04 0 0 0 .039-.041L2.187.738 2.09.417l.013-.105.027.042a.025.025 0 0 0 .007.008l.096.052a.04.04 0 0 0 .012.003.027.027 0 0 0 .027-.028.027.027 0 0 0-.013-.022"/><path d="M3.436.053a.086.086 0 0 0-.086.086v.66c0 .048.039.087.086.087h.661A.086.086 0 0 0 4.183.8V.139a.086.086 0 0 0-.086-.086z" fill="none" fill-opacity="0"/><path d="M3.5.369A.076.076 0 0 0 3.491.4l.003.173-.06.129a.039.039 0 0 0 .068.037L3.57.6a.04.04 0 0 0 .003-.016V.477l.1.044.017.105a.039.039 0 0 0 .077-.014l-.02-.126a.04.04 0 0 0-.022-.028l-.09-.04.057-.1.029.036a.03.03 0 0 0 .01.008l.11.032a.03.03 0 0 0 .034-.019.03.03 0 0 0-.017-.04h-.001L3.76.307l-.07-.085a.07.07 0 0 0-.112.01z"/><path d="m3.816.622-.007.052-.187.045.002.032h.456a.03.03 0 0 0 .029-.029V.108L4.045.093 4.01.255 3.95.28l-.053.149.05.114-.014.044zM3.69.242a.058.058 0 1 0 0-.116.058.058 0 0 0 0 .116M3.563.242A.017.017 0 0 0 3.557.22L3.528.203a.017.017 0 0 0-.022.006l-.087.15a.017.017 0 0 0 .006.023l.028.016a.017.017 0 0 0 .023-.006z"/><path d="M4.253 0a.086.086 0 0 0-.086.087v.66c0 .049.039.087.086.087h.661A.086.086 0 0 0 5 .748V.087a.086.086 0 0 0-.086-.086z" fill="none" fill-opacity="0"/><path d="M4.543.11c0-.05.077-.05.077.002v.214l.3.18v.08L4.622.488v.16l.069.054v.062L4.584.731l-.106.033V.702l.068-.054v-.16l-.298.098v-.08l.295-.18z"/><g><path d="M5.083.004a.086.086 0 0 0-.086.086v.66c0 .048.039.087.086.087h.661a.086.086 0 0 0 .087-.086V.09a.086.086 0 0 0-.087-.086z" fill="none" fill-opacity="0"/><path d="M5.702.649 5.416.1 5.13.649h-.06v.039h.688v-.04zm-.44 0 .154-.294.153.294z"/></g><g><path d="M6.758.005a.086.086 0 0 0-.087.087v.66c0 .048.039.087.087.087h.66a.086.086 0 0 0 .087-.086V.092a.086.086 0 0 0-.086-.087z" fill="none" fill-opacity="0"/><path d="M7.444.696A.109.109 0 0 1 7.4.686a.109.109 0 0 0-.092 0 .11.11 0 0 1-.09 0 .109.109 0 0 0-.091 0 .11.11 0 0 1-.09 0 .109.109 0 0 0-.091 0 .11.11 0 0 1-.09 0 .108.108 0 0 0-.091 0 .11.11 0 0 1-.045.01V.63a.11.11 0 0 0 .045-.01.11.11 0 0 1 .092 0 .11.11 0 0 0 .089 0 .11.11 0 0 1 .092 0 .109.109 0 0 0 .089 0 .11.11 0 0 1 .092 0 .11.11 0 0 0 .089 0 .11.11 0 0 1 .092 0c.013.006.028.01.044.01zM6.72.41v.158a.108.108 0 0 0 .045-.01.11.11 0 0 1 .092 0 .109.109 0 0 0 .09 0 .11.11 0 0 1 .091 0 .108.108 0 0 0 .09 0 .11.11 0 0 1 .091 0c.014.006.029.01.045.01l.013-.002c.008-.002.016-.002.024-.005A.361.361 0 0 0 7.44.435L7.455.41zM7.295.232C7.277.193 7.23.196 7.23.196h-.51v.188h.639zm-.33.111a.013.013 0 0 1-.013.013h-.06A.013.013 0 0 1 6.88.343v-.09c0-.007.006-.013.013-.013h.059c.007 0 .013.006.013.014zm.122 0a.013.013 0 0 1-.013.013h-.06a.013.013 0 0 1-.012-.013v-.09c0-.007.005-.013.013-.013h.059c.007 0 .013.006.013.014zm-.244 0a.013.013 0 0 1-.013.013h-.06a.013.013 0 0 1-.013-.013v-.09c0-.007.006-.013.014-.013h.059c.007 0 .013.006.013.014zM7.131.24h.107c.001 0 .03 0 .039.02l.04.096H7.18z"/></g><g><path d="M7.586.008A.086.086 0 0 0 7.5.094v.662c0 .047.039.086.086.086h.661a.086.086 0 0 0 .086-.086V.094a.086.086 0 0 0-.086-.086z" fill="none"/><path d="M7.885.288a.05.05 0 0 1-.048.048v.387a.038.038 0 0 1-.075 0V.336a.05.05 0 0 1-.05-.051V.072c0-.018.028-.02.028 0V.23h.048-.002V.072c0-.018.025-.019.025 0V.23h.048V.072c0-.018.026-.019.026 0zM8.12.121v.601c0 .054-.075.053-.075 0V.484h-.04V.121c0-.084.115-.084.115 0"/></g><g><path d="M8.423 0a.086.086 0 0 0-.087.086v.66c0 .048.04.087.087.087h.66A.086.086 0 0 0 9.17.747V.086A.086.086 0 0 0 9.084 0z" fill="none"/><path d="M8.372.569a.155.155 0 1 1 .31 0 .155.155 0 0 1-.31 0m.155.126a.126.126 0 1 0 0-.252.126.126 0 0 0 0 .252M8.828.57a.155.155 0 1 1 .309 0 .155.155 0 0 1-.31 0m.155.126a.126.126 0 1 0 0-.252.126.126 0 0 0 0 .252M8.828.192a.058.058 0 1 0 0-.116.058.058 0 0 0 0 .116"/><path d="M8.83.334c-.008 0-.017-.004-.024-.015L8.768.26 8.69.337l.072.039c.03.014.026.04.026.04v.163a.034.034 0 0 1-.034.034.034.034 0 0 1-.033-.034V.45l-.126-.07a.049.049 0 0 1-.012-.075L8.706.18c.015-.018.036-.015.036-.015.026 0 .04.023.04.023l.064.1h.097c.034 0 .034.045 0 .045z"/></g><g><path d="M9.257.002a.086.086 0 0 0-.087.086v.66c0 .048.04.087.087.087h.66a.086.086 0 0 0 .087-.086V.088a.086.086 0 0 0-.086-.086z" fill="none" fill-opacity="0"/><path d="M9.736.218a.06.06 0 0 1-.043.015.062.062 0 0 1-.053-.025.06.06 0 0 1-.052.025.061.061 0 0 1-.053-.025c-.01.017-.03.025-.053.025A.06.06 0 0 1 9.441.22L9.433.16c.011.015.03.025.05.025.021 0 .041-.01.052-.028a.063.063 0 0 0 .105 0c.011.017.031.028.053.028a.062.062 0 0 0 .052-.028z"/><path d="m9.752.723.095-.608h-.064l-.087.543h-.215L9.394.116H9.33l.095.607z"/></g><g><path d="M10.092-.001a.086.086 0 0 0-.086.086v.661c0 .048.039.086.086.086h.661a.086.086 0 0 0 .086-.086V.085a.086.086 0 0 0-.086-.086z" fill="none"/><path d="M10.052.49c.05-.059.14-.1.217-.087.009-.106-.003-.205.05-.303-.164.01-.24.262-.267.39M10.634.303c.035-.04.116-.062.159-.023-.112-.156-.25-.256-.446-.19.154.047.261.19.287.213"/><path d="M10.603.31c-.053-.075-.222-.194-.259-.187-.04.008-.05.233-.047.28a.23.23 0 0 1 .101-.097l.171.465.024-.005-.173-.47a.22.22 0 0 1 .183.014"/></g><g><path d="M10.907.011a.086.086 0 0 0-.086.087v.66c0 .048.039.087.086.087h.661a.086.086 0 0 0 .087-.086V.098a.086.086 0 0 0-.087-.087z" fill="none" fill-opacity="0"/><path d="M11.593.72a.103.103 0 0 1-.042-.01.106.106 0 0 0-.088 0 .103.103 0 0 1-.085 0 .107.107 0 0 0-.087 0 .104.104 0 0 1-.085 0 .105.105 0 0 0-.088 0 .104.104 0 0 1-.085 0 .105.105 0 0 0-.087 0 .105.105 0 0 1-.043.01V.656c.015 0 .03-.003.043-.009a.103.103 0 0 1 .087 0 .106.106 0 0 0 .085 0 .104.104 0 0 1 .088 0 .107.107 0 0 0 .085 0 .104.104 0 0 1 .087 0 .106.106 0 0 0 .085 0 .104.104 0 0 1 .088 0c.012.006.027.01.042.01zM11.49.537a.082.082 0 1 0-.082-.082.08.08 0 0 0 .082.082"/><path d="M11.01.583a.106.106 0 0 1 .018.006.103.103 0 0 0 .085 0 .106.106 0 0 1 .044-.01c.015 0 .03.004.043.01a.103.103 0 0 0 .085 0 .106.106 0 0 1 .044-.01c.016 0 .03.004.044.01a.102.102 0 0 0 .074.004L11.31.347l.16-.03a.048.048 0 0 0 .04-.046.047.047 0 0 0-.053-.046l-.245.044a.044.044 0 0 0-.028.06l.003.006.064.115z"/></g><g><path d="M11.75.006a.086.086 0 0 0-.087.086v.661c0 .048.04.086.087.086h.66a.086.086 0 0 0 .087-.086v-.66a.086.086 0 0 0-.086-.087z" fill="none" fill-opacity="0"/><path d="M11.98.246h.214V.162h-.214zm.19.197-.051.063.09.109zM12.157.38 12.14.306h-.107l-.016.075.07.085zm-.192.234.09-.11-.052-.062zm-.024.107-.009.042h-.06l.102-.458h-.058V.138l.17-.077.172.077v.166H12.2l.1.459h-.058l-.01-.041-.145-.178z"/></g><g><path d="M12.587.002a.086.086 0 0 0-.086.086V.75c0 .048.038.086.086.086h.661a.086.086 0 0 0 .086-.086v-.66a.086.086 0 0 0-.086-.087z" fill="none" fill-opacity="0"/><path d="M12.85.2a.058.058 0 1 0 0-.117.058.058 0 0 0 0 .116M12.888.698a.173.173 0 0 1-.113-.303L12.772.34a.217.217 0 0 0 .116.403.218.218 0 0 0 .199-.13l-.031-.053a.172.172 0 0 1-.168.137"/><path d="M13.23.596h-.04l-.098-.17a.033.033 0 0 0-.028-.016h-.145l-.002-.044h.106c.014-.001.026-.012.026-.027a.026.026 0 0 0-.026-.026h-.109l-.004-.05a.057.057 0 0 0-.059-.053.056.056 0 0 0-.053.06l.01.176c.003.03.029.053.06.053h.188l.077.133c.007.01.018.016.03.016h.068c.014 0 .026-.011.026-.026a.026.026 0 0 0-.026-.026"/></g><g><path d="M13.425.008a.086.086 0 0 0-.087.086v.66c0 .048.04.087.087.087h.66a.086.086 0 0 0 .086-.086V.094a.086.086 0 0 0-.086-.086z" fill="none" fill-opacity="0"/><path d="M14.07.245h-.083l.066-.027a.014.014 0 0 0-.01-.026l-.075.03.061-.06a.014.014 0 0 0 0-.02.014.014 0 0 0-.02 0l-.086.085V.106a.014.014 0 0 0-.027 0v.121a68.702 68.702 0 0 1-.078-.078.014.014 0 0 0-.02.02l.054.054-.077-.03a.014.014 0 0 0-.01.025l.066.027h-.08a.02.02 0 0 0-.02.02V.71c0 .011.009.02.02.02h.318a.02.02 0 0 0 .021-.02V.265a.02.02 0 0 0-.02-.02m-.021.192h-.125v-.15h.125zm-.153 0h-.124v-.15h.124zm-.124.028h.124v.223h-.124zm.152 0h.125v.223h-.125zM13.67.699h-.009a.023.023 0 0 1-.005-.02c.003-.014.012-.025.017-.027a.017.017 0 0 0 .012-.016V.279a.017.017 0 0 0-.017-.018h-.076v-.04a.017.017 0 0 0-.03-.012l-.12.12a.146.146 0 0 0-.039.09v.25c0 .035.028.064.063.064h.203c.01 0 .018-.007.018-.017A.017.017 0 0 0 13.669.7M13.65.296v.322h-.182l.124-.104V.296h.058m-.213.373V.653h.191a.082.082 0 0 0-.006.02.06.06 0 0 0 .001.026h-.157a.029.029 0 0 1-.029-.03"/></g><g><path d="M15.001.748a.086.086 0 0 1-.086.086h-.661a.086.086 0 0 1-.086-.086v-.66c0-.048.038-.087.086-.087h.66c.048 0 .087.039.087.086z" fill="none" fill-opacity="0"/><path d="M14.461.628h-.1V.344h.1zm.241-.284h.1v.284h-.1zm-.176 0h.11v.284h-.11zm-.26.284-.042.069.718-.001-.04-.068h-.035V.344h.07V.246h-.053l-.297-.101-.302.1h-.054v.1h.065v.283z"/></g><g><path d="M15.088.004a.086.086 0 0 0-.086.086v.661c0 .048.038.086.086.086h.66a.086.086 0 0 0 .087-.086v-.66a.086.086 0 0 0-.086-.087z" fill="none" fill-opacity="0"/><path d="M15.478.354V.205h.052c.021 0 .025.014.027.017.008.007.014.012.025.012h.057V.108h-.057c-.011 0-.017-.005-.025-.013-.002-.002-.006-.017-.027-.017h-.08v.259l-.035-.024-.317.205h.074v.247h.18V.57h.125V.76h.18V.518h.074z"/></g><g><path d="M17.443.409h-.168L17.203.24h.12V.169h-.479v.072h.12l-.072.168h-.168V.48h.144l-.072.191h.072l.072-.191h.287l.072.191h.072L17.3.481h.144zm-.48 0 .073-.168h.096l.071.168z"/><path style="fill:#000;fill-opacity:0;stroke:none;stroke-width:.0104169;stroke-miterlimit:4;stroke-dasharray:none;stroke-dashoffset:0;stroke-opacity:0" d="M16.815.336h.833v.833h-.833z" transform="translate(-.148 -.332)"/></g><g><path style="fill:#000;fill-opacity:0;stroke:none;stroke-width:.133106;stroke-dasharray:.532427,.133106" d="M17.5.004h.833v.833H17.5z" transform="translate(-1.665)"/><path d="M16.124.42c0 .04-.03.071-.07.071a.07.07 0 0 1-.07-.07c0-.04.03-.07.07-.07.04 0 .07.032.07.07M16.169.4v.042l.351.026V.374L16.17.4M16.093.31l.036.022.143-.2-.08-.05-.099.228M16.164.38l.26-.121-.047-.082-.234.169zM16.093.533l.036-.02.143.198-.082.047-.097-.225M16.143.498l.02-.037.261.124-.047.082-.234-.169"/></g><g><path style="fill:#000;fill-opacity:0;stroke:none;stroke-width:.131933;stroke-dasharray:.527732,.131933" d="M3.415-1.408h.833v.833h-.833z" transform="translate(2.415 1.412)"/><g transform="matrix(.0243 0 0 .0243 5.883 .056)"><path d="M2 24H0V6h2v11h28v7h-2v-5H2z"/><path d="M10 8v4.3c0 .4-.3.7-.7.7H4v2h26v-3l-1-1-2-1z"/><circle cx="6.5" cy="9.5" r="2.5"/></g></g><g><path style="fill:#000;fill-opacity:0;stroke-width:.102053;stroke-dasharray:.408211,.102053" d="M3.544-1.317h.833v.833h-.833z" transform="translate(13.956 1.321)"/><path d="M18.184.129 18.111.08 17.99.056h-.146l-.121.024-.073.049-.025.194v.365h.049v.073l.024.024h.025l.024-.024V.688h.34v.073l.024.024h.025l.024-.024V.688h.049V.323zm-.437 0h.024V.105h.292v.024h.024v.024h-.34zm0 .437-.024.025h-.025l-.024-.025V.542l.024-.024h.025l.024.024zm.413 0-.024.025h-.025l-.024-.025V.542l.024-.024h.025l.024.024zm-.024-.145h-.438l-.024-.025.024-.17.025-.024h.388l.025.024.024.17z"/></g><g><path style="fill:#000;fill-opacity:0;stroke-width:.142147;stroke-dasharray:.56859,.142147" d="M18.334.004h.833v.833h-.833z" transform="translate(0 .014)"/><path d="M18.078-.708a.03.03 0 0 1-.01.002h-.01l-.036.084c-.003.007-.013.01-.021.006a.018.018 0 0 1-.008-.022l.044-.099h.059v-.015l.029-.013c.007-.004.018.003.02.01l.014.058a.016.016 0 0 1-.03.007l-.01-.038zM18.105-.767c.064-.031.088-.139.088-.148h-.009c-.003.023-.03.112-.079.138z" style="stroke-width:.0104169" transform="matrix(2.46667 0 0 2.46667 -25.834 2.306)"/><path d="M17.988-.791c.003.005.01.007.016.005l.033-.014v.052h.059v-.059l.052-.082c.004-.006.002-.014-.004-.018-.007-.004-.014-.002-.018.004l-.044.071h-.026l-.005.001-.047.017-.023-.036a.014.014 0 0 0-.018-.004.014.014 0 0 0-.004.02z" style="stroke-width:.0104169" transform="matrix(2.46667 0 0 2.46667 -25.834 2.306)"/><path d="M18.062-.837c.013 0 .023-.01.023-.023 0-.012-.01-.024-.023-.024a.023.023 0 0 0-.023.023c0 .013.01.024.023.024z" style="stroke-width:.0104169" transform="matrix(2.46667 0 0 2.46667 -25.834 2.306)"/><path d="M18.776.576V.82h.026V.565z"/></g></svg>